<svg width="1080" height="1080" version="1.1" xmlns="http://www.w3.org/2000/svg" desc="Created with imagetracer.js version 1.2.6" ><path fill="rgb(1,1,1)" stroke="rgb(1,1,1)" stroke-width="1" opacity="1" d="M 0 0 L 1080 0 L 1080 1080 L 0 1080 L 0 0 Z M 470 308 Q 468 311 463 309 L 452 313 L 440 322 Q 441 324 438 323 L 430 336 L 425 354 L 423 381 L 421 389 L 421 400 L 419 409 L 417 436 L 414 453 L 412 480 L 410 489 L 410 498 L 409 499 L 409 514 L 411 518 L 411 520 Q 414 519 413 522 Q 418 530 430 532 Q 444 532 450 525 Q 449 522 452 523 L 455 518 L 457 511 L 460 477 L 462 470 L 462 461 L 464 451 L 464 440 L 466 433 L 466 422 L 469 414 L 475 430 L 484 460 L 487 465 L 487 468 L 494 485 L 502 512 L 508 525 L 508 530 L 510 531 L 525 531 L 535 528 L 548 520 Q 557 511 562 498 L 564 488 L 564 481 L 565 480 L 565 473 L 566 472 L 567 452 Q 569 450 568 446 L 570 444 L 586 474 L 592 488 L 596 493 L 608 518 L 613 524 L 615 531 L 630 531 L 638 529 Q 649 525 656 517 Q 655 514 658 515 L 668 495 L 670 477 L 671 476 L 672 460 L 673 459 L 673 441 L 669 433 Q 664 425 654 423 Q 641 421 636 427 Q 629 431 626 439 L 624 446 L 624 455 L 622 458 L 601 421 L 595 407 L 586 393 L 576 371 L 564 371 L 553 374 L 538 384 Q 535 383 536 386 L 534 386 L 525 403 L 523 409 L 522 422 L 520 428 L 497 365 L 496 358 L 489 342 L 487 333 L 484 328 L 483 321 L 480 317 L 480 311 L 479 309 L 471 309 L 470 308 Z M 318 602 L 291 676 L 292 678 L 316 678 L 319 670 L 320 667 L 345 667 L 348 677 L 349 678 L 374 678 L 347 604 L 347 602 L 318 602 Z M 383 603 L 383 678 L 449 678 L 449 678 L 449 660 L 409 660 L 407 659 L 407 649 L 408 648 L 442 648 L 442 633 L 443 632 L 409 631 Q 405 629 407 623 L 409 621 L 448 621 L 448 604 L 448 603 L 383 603 Z M 456 603 L 456 622 L 481 622 L 481 623 L 481 678 L 506 678 L 506 622 L 530 622 L 530 604 L 530 603 L 456 603 Z M 541 603 L 541 678 L 565 678 L 565 657 L 566 654 L 565 649 L 591 649 L 591 678 L 616 678 L 616 603 L 591 603 L 591 630 L 567 630 L 565 629 L 565 603 L 541 603 Z M 632 603 L 632 678 L 698 678 L 698 660 L 656 660 L 656 648 L 691 648 L 691 631 L 656 631 L 656 622 L 657 621 L 697 621 L 697 604 L 697 603 L 632 603 Z M 711 603 L 711 679 L 712 679 L 735 679 L 736 675 L 735 674 L 735 653 L 737 651 L 744 651 L 757 678 L 758 679 L 784 679 L 781 671 L 768 648 L 777 642 L 781 636 L 783 627 Q 783 617 778 612 Q 773 606 765 603 L 711 603 Z M 449 744 L 445 746 L 443 751 L 443 768 L 444 771 L 451 775 L 459 773 L 461 770 Q 463 765 459 766 L 457 769 Q 456 772 450 771 L 447 768 L 447 752 L 448 750 L 452 747 L 457 751 Q 456 753 459 752 Q 460 754 461 752 L 460 748 Q 458 742 449 744 Z M 466 744 L 465 747 L 465 760 L 465 762 Q 464 767 466 769 L 465 772 L 468 775 Q 479 777 483 771 L 483 750 L 482 748 L 478 744 L 466 744 Z M 489 744 L 487 753 Q 486 758 488 760 L 488 770 L 487 771 L 488 774 L 491 775 L 493 772 L 493 763 L 495 761 L 500 769 L 501 773 Q 501 776 506 775 L 507 774 L 507 746 L 503 744 Q 501 748 502 757 L 501 758 L 494 747 Q 493 743 489 744 Z M 525 744 L 523 746 L 523 772 L 524 774 Q 526 777 528 773 L 527 768 L 528 761 L 531 760 L 536 761 L 537 763 L 537 774 L 540 775 L 541 774 L 542 747 Q 541 743 537 744 L 537 751 L 536 752 L 536 756 L 530 756 L 528 755 Q 530 748 527 747 Q 528 743 525 744 Z M 551 744 L 546 748 L 546 768 L 548 772 L 551 774 L 556 775 L 561 774 L 565 769 Q 564 764 566 763 Q 567 753 564 748 L 561 744 L 551 744 Z M 575 744 L 573 745 L 569 750 L 571 756 L 583 765 Q 584 770 581 771 L 574 770 L 573 766 Q 567 764 569 770 L 574 774 L 578 775 L 583 774 L 587 769 L 586 762 L 578 756 Q 573 755 574 750 Q 575 747 581 748 L 584 752 Q 588 753 586 748 Q 584 742 575 744 Z M 590 744 L 588 746 Q 589 748 594 747 L 595 749 L 595 774 Q 596 776 598 774 L 599 774 L 599 750 L 606 746 L 605 744 L 590 744 Z M 610 744 L 610 774 L 614 774 L 614 746 L 610 744 Z M 621 744 L 619 746 L 619 773 L 621 774 Q 624 775 623 773 L 623 771 L 624 755 L 635 774 L 638 774 L 638 746 L 636 744 L 634 746 L 634 763 L 625 747 Q 625 743 621 744 Z M 649 744 L 647 745 L 643 751 L 643 769 L 644 771 L 648 774 Q 652 773 654 775 L 658 774 L 662 766 Q 664 759 661 757 L 652 757 L 652 760 Q 657 759 658 763 L 657 769 L 654 771 L 648 770 L 647 768 L 647 752 L 648 750 L 652 747 L 659 752 L 661 752 L 660 748 Q 658 742 649 744 Z " /><path fill="rgb(1,1,1)" stroke="rgb(1,1,1)" stroke-width="1" opacity="1" d="M 736.5 620 L 751.5 620 L 757 623.5 Q 757.8 629.6 756 632 L 751.5 634 L 736.5 634 L 735 632.5 L 735 621.5 L 736.5 620 Z " /><path fill="rgb(1,1,1)" stroke="rgb(1,1,1)" stroke-width="1" opacity="1" d="M 331 625 Q 334 623.8 333 627.5 L 339 645.5 L 339 650 L 325.5 650 L 325 646.5 L 331 625 Z " /><path fill="rgb(1,1,1)" stroke="rgb(1,1,1)" stroke-width="1" opacity="1" d="M 470.5 748 Q 477.5 746.5 479 750.5 L 478 768.5 L 475.5 771 Q 469.4 772.3 470 769.5 Q 467.7 768.2 469 763.5 Q 471.5 762 470 756.5 Q 467.5 755 469 749.5 L 470.5 748 Z " /><path fill="rgb(1,1,1)" stroke="rgb(1,1,1)" stroke-width="1" opacity="1" d="M 554.5 748 Q 559.6 747.4 561 750.5 L 562 761.5 Q 559.5 763 561 768.5 L 559.5 770 L 554.5 771 L 551 768.5 Q 548.5 763 550 753.5 L 552 749 L 554.5 748 Z " /><path fill="rgb(119,115,201)" stroke="rgb(119,115,201)" stroke-width="1" opacity="1" d="M 469.5 308 L 470.5 309 L 478.5 309 L 480 310.5 L 480 316.5 L 483 320.5 L 484 327.5 L 487 332.5 L 489 341.5 L 496 357.5 L 497 364.5 L 519.5 428 L 522 421.5 L 523 408.5 L 525 402.5 L 534 386 L 536 386 Q 534.9 383.3 537.5 384 L 552.5 374 L 563.5 371 L 576 371 L 586 392.5 L 595 406.5 L 601 420.5 L 621.5 458 L 623.5 455 L 624 456.5 L 623 458.5 L 624 459.5 L 624 470.5 L 625 473 L 634.5 470 L 638.5 470 L 652.5 461 L 658.5 460 Q 659.3 462.8 663.5 462 L 668 459 L 669.5 456 L 672 454.5 L 672 440.5 L 669 434.5 L 671 435.5 L 673 440.5 L 673 458.5 L 672 459.5 L 671 475.5 L 670 476.5 L 668 494.5 L 658 515 Q 655.3 513.9 656 516.5 Q 648.8 524.8 637.5 529 L 629.5 531 L 615 531 L 613 523.5 L 608 517.5 L 596 492.5 L 592 487.5 L 586 473.5 L 569.5 444 L 568 445.5 Q 569.3 450.3 567 451.5 L 565.5 472 L 565 465.5 Q 561.1 463.4 562 458 Q 559.3 456.9 560 459.5 L 558.5 461 L 545 461 L 543.5 464 L 537.5 464 L 526.5 470 L 522.5 465 Q 520.3 464.3 521 466.5 L 518 472.5 L 514 494.5 L 512 497.5 L 511 511.5 L 507.5 524 L 502 511.5 L 494 484.5 L 468.5 414 L 466 421.5 L 466 432.5 L 464 439.5 L 464 450.5 L 463 451.5 L 462.5 460 Q 460.1 455.9 461 448.5 L 463 445.5 L 461 445.5 L 460.5 440 L 459.5 442 L 459 440.5 Q 461.5 439 458 437.5 L 457 433 L 449 433 L 449 435.5 L 446.5 438 L 433.5 438 L 431.5 439 L 426.5 433 Q 421.7 431.3 423 435.5 L 422 435.5 L 421.5 432 L 421 440 L 417.5 438 L 415.5 449 L 415 444.5 L 417 435.5 L 417 425.5 L 419 417.5 L 419 408.5 L 421 399.5 L 421 388.5 L 423 380.5 L 423 371.5 L 424 370.5 L 426 347.5 L 430 335.5 L 438 323 Q 440.7 324.1 440 321.5 L 451.5 313 L 462.5 309 Q 468 310.5 469.5 308 Z M 468 310 L 468 311 L 472 311 L 468 310 Z M 474 310 Q 473 312 477 311 L 478 312 Q 479 308 474 310 Z M 565 373 L 565 374 L 569 374 L 565 373 Z M 572 373 L 572 374 L 574 374 L 572 373 Z M 559 374 L 559 375 L 561 375 L 559 374 Z M 555 375 L 546 379 L 547 382 L 547 380 L 557 377 Q 558 374 555 375 Z M 535 390 L 533 392 L 535 392 L 535 390 Z M 532 394 L 530 396 L 532 396 L 532 394 Z " /><path fill="rgb(119,115,201)" stroke="rgb(119,115,201)" stroke-width="1" opacity="1" d="M 663.5 427 L 667.5 432 L 663.5 427 Z " /><path fill="rgb(119,115,201)" stroke="rgb(119,115,201)" stroke-width="1" opacity="1" d="M 414.5 452 L 415 455.5 L 414 455.5 L 414.5 452 Z " /><path fill="rgb(119,115,201)" stroke="rgb(119,115,201)" stroke-width="1" opacity="1" d="M 413.5 461 L 414 464.5 L 413 464.5 L 413.5 461 Z " /><path fill="rgb(119,115,201)" stroke="rgb(119,115,201)" stroke-width="1" opacity="1" d="M 461.5 464 L 462 469.5 L 461 469.5 L 461.5 464 Z " /><path fill="rgb(119,115,201)" stroke="rgb(119,115,201)" stroke-width="1" opacity="1" d="M 412.5 470 L 413 474.5 L 412 474.5 L 412.5 470 Z " /><path fill="rgb(119,115,201)" stroke="rgb(119,115,201)" stroke-width="1" opacity="1" d="M 460.5 473 L 461 475.5 L 460 475.5 L 460.5 473 Z " /><path fill="rgb(119,115,201)" stroke="rgb(119,115,201)" stroke-width="1" opacity="1" d="M 564.5 477 L 565 479.5 L 564 479.5 L 564.5 477 Z " /><path fill="rgb(119,115,201)" stroke="rgb(119,115,201)" stroke-width="1" opacity="1" d="M 411.5 480 L 412 483.5 L 411 483.5 L 411.5 480 Z " /><path fill="rgb(119,115,201)" stroke="rgb(119,115,201)" stroke-width="1" opacity="1" d="M 459.5 482 L 460 484.5 L 459 484.5 L 459.5 482 Z " /><path fill="rgb(119,115,201)" stroke="rgb(119,115,201)" stroke-width="1" opacity="1" d="M 563.5 484 L 564 487.5 L 563 487.5 L 563.5 484 Z " /><path fill="rgb(119,115,201)" stroke="rgb(119,115,201)" stroke-width="1" opacity="1" d="M 410.5 488 L 411 492.5 L 410 492.5 L 410.5 488 Z " /><path fill="rgb(119,115,201)" stroke="rgb(119,115,201)" stroke-width="1" opacity="1" d="M 458.5 492 L 459 494.5 L 458 494.5 L 458.5 492 Z " /><path fill="rgb(119,115,201)" stroke="rgb(119,115,201)" stroke-width="1" opacity="1" d="M 409.5 498 L 410 501.5 L 409 501.5 L 409.5 498 Z " /><path fill="rgb(119,115,201)" stroke="rgb(119,115,201)" stroke-width="1" opacity="1" d="M 457.5 500 L 458 502.5 L 457 502.5 L 457.5 500 Z " /><path fill="rgb(119,115,201)" stroke="rgb(119,115,201)" stroke-width="1" opacity="1" d="M 551.5 515 L 547.5 520 L 551.5 515 Z " /><path fill="rgb(119,115,201)" stroke="rgb(119,115,201)" stroke-width="1" opacity="1" d="M 452.5 521 L 451.5 523 L 452.5 521 Z " /><path fill="rgb(119,115,201)" stroke="rgb(119,115,201)" stroke-width="1" opacity="1" d="M 508.5 525 Q 508.3 529.3 511 530.5 L 509.5 531 Q 506.6 529.6 508.5 525 Z " /><path fill="rgb(119,115,201)" stroke="rgb(119,115,201)" stroke-width="1" opacity="1" d="M 418.5 526 L 419.5 528 L 418.5 526 Z " /><path fill="rgb(119,115,201)" stroke="rgb(119,115,201)" stroke-width="1" opacity="1" d="M 456.5 603 L 457 621.5 L 456 621.5 L 456.5 603 Z " /><path fill="rgb(119,115,201)" stroke="rgb(119,115,201)" stroke-width="1" opacity="1" d="M 591.5 603 L 592 629.5 L 591 629.5 L 591.5 603 Z " /><path fill="rgb(119,115,201)" stroke="rgb(119,115,201)" stroke-width="1" opacity="1" d="M 762.5 603 L 765 603.5 L 762.5 604 L 762.5 603 Z " /><path fill="rgb(119,115,201)" stroke="rgb(119,115,201)" stroke-width="1" opacity="1" d="M 766.5 604 L 773 607.5 L 771.5 607 L 766.5 605 L 766.5 604 Z " /><path fill="rgb(119,115,201)" stroke="rgb(119,115,201)" stroke-width="1" opacity="1" d="M 774.5 608 L 777.5 612 L 774.5 608 Z " /><path fill="rgb(119,115,201)" stroke="rgb(119,115,201)" stroke-width="1" opacity="1" d="M 778.5 613 L 779.5 615 L 778.5 613 Z " /><path fill="rgb(119,115,201)" stroke="rgb(119,115,201)" stroke-width="1" opacity="1" d="M 505.5 622 L 506 677.5 L 505 677.5 L 505.5 622 Z " /><path fill="rgb(119,115,201)" stroke="rgb(119,115,201)" stroke-width="1" opacity="1" d="M 331 623 Q 334 622 333 625 Q 330 626 331 623 Z " /><path fill="rgb(119,115,201)" stroke="rgb(119,115,201)" stroke-width="1" opacity="1" d="M 757.5 624 L 758 629.5 L 756 630.5 L 757.5 624 Z " /><path fill="rgb(119,115,201)" stroke="rgb(119,115,201)" stroke-width="1" opacity="1" d="M 782.5 624 L 783 626.5 L 782 626.5 L 782.5 624 Z " /><path fill="rgb(119,115,201)" stroke="rgb(119,115,201)" stroke-width="1" opacity="1" d="M 754.5 632 L 756 632.5 L 752.5 634 L 752.5 633 L 754.5 632 Z " /><path fill="rgb(119,115,201)" stroke="rgb(119,115,201)" stroke-width="1" opacity="1" d="M 780.5 634 L 781 635.5 L 778.5 639 L 779 637.5 L 780.5 634 Z " /><path fill="rgb(119,115,201)" stroke="rgb(119,115,201)" stroke-width="1" opacity="1" d="M 360.5 640 L 362 643.5 L 361 643.5 L 360.5 640 Z " /><path fill="rgb(119,115,201)" stroke="rgb(119,115,201)" stroke-width="1" opacity="1" d="M 777.5 640 L 776.5 642 L 777.5 640 Z " /><path fill="rgb(119,115,201)" stroke="rgb(119,115,201)" stroke-width="1" opacity="1" d="M 773.5 643 L 772.5 645 L 773.5 643 Z " /><path fill="rgb(119,115,201)" stroke="rgb(119,115,201)" stroke-width="1" opacity="1" d="M 770.5 645 L 769.5 647 L 768 646.5 L 770.5 645 Z " /><path fill="rgb(119,115,201)" stroke="rgb(119,115,201)" stroke-width="1" opacity="1" d="M 339.5 647 L 340 649.5 L 339 649.5 L 339.5 647 Z " /><path fill="rgb(119,115,201)" stroke="rgb(119,115,201)" stroke-width="1" opacity="1" d="M 768.5 648 L 771 652.5 L 770 652.5 L 768.5 648 Z " /><path fill="rgb(119,115,201)" stroke="rgb(119,115,201)" stroke-width="1" opacity="1" d="M 591.5 649 L 592 677.5 L 591 677.5 L 591.5 649 Z " /><path fill="rgb(119,115,201)" stroke="rgb(119,115,201)" stroke-width="1" opacity="1" d="M 744.5 651 L 746 654.5 L 745 654.5 L 744.5 651 Z " /><path fill="rgb(119,115,201)" stroke="rgb(119,115,201)" stroke-width="1" opacity="1" d="M 771.5 654 L 772.5 656 L 771.5 654 Z " /><path fill="rgb(119,115,201)" stroke="rgb(119,115,201)" stroke-width="1" opacity="1" d="M 746.5 656 L 748 658.5 L 747 658.5 L 746.5 656 Z " /><path fill="rgb(119,115,201)" stroke="rgb(119,115,201)" stroke-width="1" opacity="1" d="M 448.5 660 L 449 662.5 L 448 662.5 L 448.5 660 Z " /><path fill="rgb(119,115,201)" stroke="rgb(119,115,201)" stroke-width="1" opacity="1" d="M 448.5 664 L 449 674.5 L 448 674.5 L 448.5 664 Z " /><path fill="rgb(119,115,201)" stroke="rgb(119,115,201)" stroke-width="1" opacity="1" d="M 697.5 664 L 698 677.5 L 697 677.5 L 697.5 664 Z " /><path fill="rgb(119,115,201)" stroke="rgb(119,115,201)" stroke-width="1" opacity="1" d="M 319.5 666 L 319 667.5 L 318.5 670 L 318 667.5 L 319.5 666 Z " /><path fill="rgb(119,115,201)" stroke="rgb(119,115,201)" stroke-width="1" opacity="1" d="M 344.5 666 L 346 669.5 L 345 669.5 L 344.5 666 Z " /><path fill="rgb(119,115,201)" stroke="rgb(119,115,201)" stroke-width="1" opacity="1" d="M 779.5 669 L 780.5 671 L 779.5 669 Z " /><path fill="rgb(119,115,201)" stroke="rgb(119,115,201)" stroke-width="1" opacity="1" d="M 753.5 670 L 755 672.5 L 753 671.5 L 753.5 670 Z " /><path fill="rgb(119,115,201)" stroke="rgb(119,115,201)" stroke-width="1" opacity="1" d="M 781.5 672 L 784 676.5 L 782 675.5 L 781.5 672 Z " /><path fill="rgb(119,115,201)" stroke="rgb(119,115,201)" stroke-width="1" opacity="1" d="M 291.5 675 L 292 677 L 316 677.5 L 291 678 L 291.5 675 Z " /><path fill="rgb(119,115,201)" stroke="rgb(119,115,201)" stroke-width="1" opacity="1" d="M 373.5 676 L 374 678 L 348 677.5 L 372.5 677 L 373.5 676 Z " /><path fill="rgb(119,115,201)" stroke="rgb(119,115,201)" stroke-width="1" opacity="1" d="M 711.5 678 L 735 678.5 L 711.5 679 L 711.5 678 Z " /><path fill="rgb(119,115,201)" stroke="rgb(119,115,201)" stroke-width="1" opacity="1" d="M 757.5 678 L 784 678.5 L 757.5 679 L 757.5 678 Z " /><path fill="rgb(119,115,201)" stroke="rgb(119,115,201)" stroke-width="1" opacity="1" d="M 448.5 744 Q 457.5 742.5 460 747.5 L 461 751.5 Q 459.8 754.3 458.5 752 Q 456.3 752.8 457 750.5 L 451.5 747 L 448 749.5 L 447 751.5 L 447 767.5 L 449.5 771 Q 455.8 772.3 457 768.5 L 458.5 766 Q 462.7 764.7 461 769.5 L 458.5 773 L 450.5 775 L 444 770.5 L 443 767.5 L 443 750.5 L 445 746 L 448.5 744 Z M 449 745 L 444 753 L 444 768 L 445 770 L 448 772 L 446 768 L 446 751 L 448 747 L 451 746 L 456 747 L 460 752 L 460 750 Q 458 743 449 745 Z M 458 767 L 458 770 L 458 771 L 460 770 Q 461 766 458 767 Z M 449 772 L 449 773 L 456 773 L 449 772 Z " /><path fill="rgb(119,115,201)" stroke="rgb(119,115,201)" stroke-width="1" opacity="1" d="M 466 744 L 477.5 744 L 482 747.5 L 483 749.5 L 483 770.5 Q 479 776.5 467.5 775 L 465 771.5 L 466 768.5 Q 463.5 767 465 761.5 L 465 759.5 L 465 746.5 L 466 744 Z M 467 745 L 466 752 L 467 755 L 467 774 L 471 773 L 473 774 L 479 773 L 482 769 L 482 767 L 482 751 L 481 749 L 477 745 L 467 745 Z " /><path fill="rgb(119,115,201)" stroke="rgb(119,115,201)" stroke-width="1" opacity="1" d="M 489 744 Q 492.8 743.3 494 746.5 L 500.5 758 L 502 756.5 Q 500.7 747.6 503 744 L 507 745.5 L 507 773.5 L 505.5 775 Q 501.5 775.5 501 772.5 L 500 768.5 L 494.5 761 L 493 762.5 L 493 771.5 L 490.5 775 L 488 773.5 L 487 770.5 L 488 769.5 L 488 759.5 Q 485.5 758 487 752.5 L 489 744 Z M 491 745 L 489 747 L 489 773 L 491 773 L 493 755 L 496 757 L 498 764 L 500 765 Q 501 759 497 758 Q 498 753 496 754 L 496 753 L 492 747 Q 493 744 491 745 Z M 504 745 L 503 751 L 503 753 Q 501 761 504 765 L 503 764 L 500 765 Q 499 768 502 767 L 501 769 L 502 772 L 506 773 L 506 746 L 504 745 Z " /><path fill="rgb(119,115,201)" stroke="rgb(119,115,201)" stroke-width="1" opacity="1" d="M 524.5 744 Q 527.8 742.9 527 745.5 L 525.5 745 L 524 745.5 L 524 771.5 L 526 772.5 Q 524.3 766.6 528 768 Q 529.3 773.5 525.5 775 L 523 771.5 L 523 745.5 L 524.5 744 Z " /><path fill="rgb(119,115,201)" stroke="rgb(119,115,201)" stroke-width="1" opacity="1" d="M 537 744 Q 540.8 743.3 542 746.5 L 541 773.5 L 539.5 775 L 537 774 L 537 762.5 L 535.5 761 L 530.5 760 L 528 761 L 527.5 766 L 527 760.5 Q 528.8 757.3 535.5 759 L 538 760 L 538 772.5 L 540 773 L 540 758.5 L 539 755.5 L 540 753.5 L 540 751.5 Q 542 744.6 538 746 L 537 757 L 528.5 757 L 527 755.5 L 527.5 747 L 528 754.5 L 529.5 756 L 536 756 L 536 751.5 L 537 750.5 L 537 744 Z " /><path fill="rgb(119,115,201)" stroke="rgb(119,115,201)" stroke-width="1" opacity="1" d="M 550.5 744 L 560.5 744 L 564 747.5 Q 567.1 752.9 566 762.5 Q 563.8 763.8 565 768.5 L 560.5 774 L 555.5 775 L 550.5 774 L 548 771.5 L 546 767.5 L 546 747.5 L 550.5 744 Z M 553 745 L 551 746 L 547 751 L 548 770 L 552 773 L 557 774 L 560 773 L 562 770 Q 559 773 554 772 L 549 767 L 549 752 L 550 750 L 554 747 L 561 748 L 563 754 L 563 764 L 562 765 L 563 770 L 565 763 Q 566 753 563 749 Q 561 743 553 745 Z M 555 748 L 552 749 L 550 754 Q 549 763 551 769 L 555 771 L 560 770 L 561 769 Q 560 763 562 762 L 561 751 Q 560 747 555 748 Z " /><path fill="rgb(119,115,201)" stroke="rgb(119,115,201)" stroke-width="1" opacity="1" d="M 574.5 744 Q 583.5 742.5 586 747.5 Q 588.1 753.4 583.5 752 L 580.5 748 Q 575.3 746.8 574 749.5 Q 573.3 755.3 577.5 756 L 586 761.5 L 587 768.5 L 582.5 774 L 577.5 775 L 573.5 774 L 569 769.5 Q 567.4 763.8 573 766 L 574 770 L 580.5 771 Q 584 770 583 764.5 L 571 755.5 L 569 749.5 L 572.5 745 L 574.5 744 Z M 577 745 L 572 748 L 573 749 L 575 747 L 580 746 L 577 745 Z M 584 747 L 583 750 L 585 750 L 584 747 Z M 572 749 L 571 754 L 584 764 Q 583 768 586 767 L 585 763 L 575 755 L 572 749 Z M 572 767 L 570 769 L 573 771 L 572 767 Z M 585 768 L 583 771 L 581 772 L 576 771 L 573 772 L 578 774 L 585 771 L 585 768 Z " /><path fill="rgb(119,115,201)" stroke="rgb(119,115,201)" stroke-width="1" opacity="1" d="M 589.5 744 L 604.5 744 L 606 745.5 L 599 749.5 L 599 773.5 L 597.5 774 Q 596.3 776.3 595 773.5 L 595 748.5 L 593.5 747 Q 589 748 588 745.5 L 589.5 744 Z M 592 745 Q 591 747 595 746 L 596 748 L 596 773 L 598 773 L 598 747 L 604 746 L 592 745 Z " /><path fill="rgb(119,115,201)" stroke="rgb(119,115,201)" stroke-width="1" opacity="1" d="M 610 744 L 614 745.5 L 614 773.5 L 610 774 L 610 744 Z M 611 746 L 611 773 L 613 772 L 613 759 L 612 758 L 613 754 L 612 751 L 612 749 L 613 747 L 611 746 Z " /><path fill="rgb(119,115,201)" stroke="rgb(119,115,201)" stroke-width="1" opacity="1" d="M 620.5 744 Q 624.5 743.5 625 746.5 L 633.5 763 L 634 745.5 L 635.5 744 L 638 745.5 L 638 773.5 L 634.5 774 L 623.5 755 L 623 770.5 L 623 772.5 Q 623.8 775.1 620.5 774 L 619 772.5 L 619 745.5 L 620.5 744 Z M 622 745 L 620 747 L 621 751 L 620 752 L 620 773 L 622 773 L 622 753 L 625 752 L 634 772 Q 633 775 637 773 L 637 769 L 631 763 L 627 753 L 624 750 L 624 746 L 622 745 Z M 635 746 Q 634 750 637 749 Q 638 745 635 746 Z M 635 751 L 635 762 L 636 764 L 637 764 L 637 752 L 635 751 Z " /><path fill="rgb(119,115,201)" stroke="rgb(119,115,201)" stroke-width="1" opacity="1" d="M 648.5 744 Q 657.5 742.5 660 747.5 L 661 752 L 658.5 752 L 651.5 747 L 648 749.5 L 647 751.5 L 647 767.5 L 648 770 L 653.5 771 L 657 768.5 L 658 762.5 Q 656.7 759 652 760 L 652 757 L 660.5 757 Q 663.8 758.8 662 765.5 L 657.5 774 L 653.5 775 Q 652.3 772.7 647.5 774 L 644 770.5 L 643 768.5 L 643 750.5 L 646.5 745 L 648.5 744 Z M 651 745 L 651 746 Q 657 746 659 750 L 659 749 Q 657 744 651 745 Z M 648 746 L 644 752 L 644 768 L 645 771 L 649 773 L 656 773 L 649 771 Q 645 770 646 765 L 646 763 L 645 758 L 646 750 L 650 747 L 648 746 Z M 655 758 Q 653 760 658 759 L 659 761 L 660 768 L 661 760 Q 660 757 655 758 Z M 659 768 L 657 771 L 659 771 L 659 768 Z " /><path fill="rgb(119,115,201)" stroke="rgb(119,115,201)" stroke-width="1" opacity="1" d="M 471.5 746 Q 477.3 746.3 480 749.5 Q 482.1 763.6 477.5 771 L 469 772 Q 467.2 768.2 468 760.5 L 469 758.5 L 468 757.5 L 468 748.5 L 471.5 746 Z M 471 748 L 469 750 Q 468 755 470 757 Q 472 762 469 764 Q 468 768 470 770 Q 469 772 476 771 L 478 769 L 479 751 Q 478 747 471 748 Z " /><path fill="rgb(221,62,185)" stroke="rgb(221,62,185)" stroke-width="1" opacity="1" d="M 642.5 423 Q 651.4 421.6 656.5 424 L 669 432 L 672 440.5 L 672 454.5 L 668 457.5 Q 668.8 459.8 666.5 459 Q 665.8 462.8 660.5 462 Q 659.5 459 654.5 460 L 638.5 470 L 634.5 470 L 625 473 L 624 470.5 L 624 459.5 L 623 457.5 L 624 456.5 L 624 447.5 L 628 434.5 L 635.5 427 L 642.5 423 Z " /><path fill="rgb(221,62,185)" stroke="rgb(221,62,185)" stroke-width="1" opacity="1" d="M 421.5 432 L 422.5 436 L 423 433 Q 426.8 432 428 434.5 L 431.5 439 L 433.5 438 L 446.5 438 L 449 435.5 L 449 433 L 457 433 Q 457 438.3 461 440.5 L 461.5 446 L 463 445.5 Q 459.6 448.1 461 455.5 Q 463.7 457.3 462 463.5 L 461 464.5 L 457 508.5 L 453 520.5 L 447.5 527 Q 441.3 532.3 429.5 532 Q 418.6 529.4 413 521.5 L 409 511.5 L 409 502.5 L 410 501.5 L 410 493.5 L 411 492.5 L 411 484.5 L 413 474.5 L 414 456.5 L 417.5 438 L 421 440 L 421.5 432 Z " /><path fill="rgb(221,62,185)" stroke="rgb(221,62,185)" stroke-width="1" opacity="1" d="M 560 458 Q 563.3 456.7 562 461.5 L 565 465.5 L 565 476.5 L 560 502.5 Q 554.8 513.8 545.5 521 L 527.5 530 L 511.5 531 L 509 528.5 L 508 521.5 L 511 511.5 L 512 497.5 L 514 494.5 Q 515.4 477.2 521 465 L 524 466.5 L 526.5 470 L 537.5 464 Q 543.5 465.5 545 462.5 L 545.5 461 L 558.5 461 L 560 458 Z " /><path fill="rgb(221,62,185)" stroke="rgb(221,62,185)" stroke-width="1" opacity="1" d="M 472.5 745 L 473.5 747 L 472.5 745 Z " /><path fill="rgb(221,62,185)" stroke="rgb(221,62,185)" stroke-width="1" opacity="1" d="M 596.5 748 Q 598.8 747.3 598 749.5 L 596.5 748 Z " /><path fill="rgb(221,62,185)" stroke="rgb(221,62,185)" stroke-width="1" opacity="1" d="M 504.5 749 L 505.5 751 L 503 750.5 L 504.5 749 Z " /><path fill="rgb(221,62,185)" stroke="rgb(221,62,185)" stroke-width="1" opacity="1" d="M 466.5 751 L 467 753.5 L 466 753.5 L 466.5 751 Z " /><path fill="rgb(221,62,185)" stroke="rgb(221,62,185)" stroke-width="1" opacity="1" d="M 503.5 752 L 504 755.5 L 503 755.5 L 503.5 752 Z " /><path fill="rgb(221,62,185)" stroke="rgb(221,62,185)" stroke-width="1" opacity="1" d="M 572.5 752 L 571.5 754 L 572.5 752 Z " /><path fill="rgb(221,62,185)" stroke="rgb(221,62,185)" stroke-width="1" opacity="1" d="M 597.5 759 L 598 763.5 L 597 763.5 L 597.5 759 Z " /><path fill="rgb(221,62,185)" stroke="rgb(221,62,185)" stroke-width="1" opacity="1" d="M 499.5 764 L 501.5 765 L 503 764.5 L 502 766.5 L 502.5 768 L 500 767 L 499.5 764 Z " /><path fill="rgb(221,62,185)" stroke="rgb(221,62,185)" stroke-width="1" opacity="1" d="M 583.5 769 L 584.5 771 L 583.5 769 Z " /><path fill="rgb(221,62,185)" stroke="rgb(221,62,185)" stroke-width="1" opacity="1" d="M 645.5 770 L 646.5 772 L 645.5 770 Z " /><path fill="rgb(251,251,251)" stroke="rgb(251,251,251)" stroke-width="1" opacity="1" d="M 467.5 310 L 472 310.5 L 467.5 311 L 467.5 310 Z " /><path fill="rgb(251,251,251)" stroke="rgb(251,251,251)" stroke-width="1" opacity="1" d="M 473.5 310 Q 478.9 308.1 478 311.5 L 476.5 311 Q 472.5 311.8 473.5 310 Z " /><path fill="rgb(251,251,251)" stroke="rgb(251,251,251)" stroke-width="1" opacity="1" d="M 564.5 373 L 569 373.5 L 564.5 374 L 564.5 373 Z " /><path fill="rgb(251,251,251)" stroke="rgb(251,251,251)" stroke-width="1" opacity="1" d="M 571.5 373 L 574 373.5 L 571.5 374 L 571.5 373 Z " /><path fill="rgb(251,251,251)" stroke="rgb(251,251,251)" stroke-width="1" opacity="1" d="M 558.5 374 L 561 374.5 L 558.5 375 L 558.5 374 Z " /><path fill="rgb(251,251,251)" stroke="rgb(251,251,251)" stroke-width="1" opacity="1" d="M 554.5 375 Q 558.3 374 557 377 L 547 380 L 546.5 382 L 546 379 L 554.5 375 Z " /><path fill="rgb(251,251,251)" stroke="rgb(251,251,251)" stroke-width="1" opacity="1" d="M 539.5 385 L 538.5 387 L 537 386.5 L 539.5 385 Z " /><path fill="rgb(251,251,251)" stroke="rgb(251,251,251)" stroke-width="1" opacity="1" d="M 535.5 388 L 536 389.5 L 535 392 L 533 391.5 L 535.5 388 Z " /><path fill="rgb(251,251,251)" stroke="rgb(251,251,251)" stroke-width="1" opacity="1" d="M 531.5 394 L 532 396 L 530 395.5 L 531.5 394 Z " /><path fill="rgb(251,251,251)" stroke="rgb(251,251,251)" stroke-width="1" opacity="1" d="M 319.5 602 L 345.5 602 L 347 603.5 L 373 677 L 348.5 677 L 348 674.5 L 344.5 666 L 343.5 667 L 320.5 667 Q 319.3 664.8 318 667.5 L 316 677 L 292.5 677 L 292 674.5 L 317 605.5 L 319.5 602 Z M 331 623 L 324 649 L 325 650 L 340 650 L 333 627 Q 334 622 331 623 Z " /><path fill="rgb(251,251,251)" stroke="rgb(251,251,251)" stroke-width="1" opacity="1" d="M 384.5 603 L 447.5 603 L 448 603.5 L 448 621 L 407.5 621 L 407 621.5 L 407 631 L 442 631 L 442 648 L 407 648 L 407 660 L 447.5 660 L 448 662.5 L 448 664.5 L 448 674.5 L 449 675.5 L 448 678 L 384.5 678 L 383 676.5 L 383 604.5 L 384.5 603 Z " /><path fill="rgb(251,251,251)" stroke="rgb(251,251,251)" stroke-width="1" opacity="1" d="M 457 603 L 528.5 603 L 530 604.5 L 530 608.5 L 530 618.5 L 529 619.5 Q 531.3 620.8 528.5 622 L 505 622 L 505 678 L 481 678 L 480.5 621 L 479.5 622 L 457 622 L 457 603 Z " /><path fill="rgb(251,251,251)" stroke="rgb(251,251,251)" stroke-width="1" opacity="1" d="M 541 603 L 565 603 L 565 630 L 592 630 L 592 603 L 616 603 L 615 606.5 L 616 607.5 L 616 674.5 L 616 676.5 L 615.5 678 L 592 678 L 592 649 L 565 649 L 565 678 L 541 678 L 541 603 Z " /><path fill="rgb(251,251,251)" stroke="rgb(251,251,251)" stroke-width="1" opacity="1" d="M 632 603 L 695.5 603 L 697 604.5 L 697 619.5 L 695.5 621 L 656.5 621 L 656 621.5 L 656 631 L 691 631 L 691 648 L 656 648 L 656 660 L 696.5 660 L 698 661.5 L 697 664.5 L 697 677.5 L 696.5 678 L 632 678 L 632 603 Z " /><path fill="rgb(251,251,251)" stroke="rgb(251,251,251)" stroke-width="1" opacity="1" d="M 712.5 603 L 761.5 603 Q 772.4 605.1 778 612.5 L 782 621.5 L 782 630.5 Q 780.2 638.7 774.5 643 L 768 646 L 771 654.5 L 784 677.5 L 757 678 L 745 651 L 735 651 L 735 678 L 711 678 L 711 604.5 L 712.5 603 Z M 735 620 L 735 634 L 755 634 L 758 630 L 758 625 L 756 621 L 754 620 L 735 620 Z " /><path fill="rgb(251,251,251)" stroke="rgb(251,251,251)" stroke-width="1" opacity="1" d="M 449.5 745 L 451 745.5 L 448 747 L 446 750.5 L 446 768.5 L 448 772 L 455.5 772 L 458 769.5 Q 457 765.8 460 767 L 459 771 L 455.5 773 L 448.5 773 L 444 766.5 L 444 752.5 L 447.5 746 L 449.5 745 Z " /><path fill="rgb(251,251,251)" stroke="rgb(251,251,251)" stroke-width="1" opacity="1" d="M 453.5 745 L 460 749.5 Q 460.7 752.1 458 751 L 455.5 747 L 453.5 745 Z " /><path fill="rgb(251,251,251)" stroke="rgb(251,251,251)" stroke-width="1" opacity="1" d="M 467 745 L 472 745.5 L 468 748.5 L 468 769.5 L 469 772 Q 477.8 774 480 768.5 L 479 766.5 L 480 765.5 L 480 749.5 L 473 745.5 L 475.5 745 L 481 748.5 L 482 750.5 L 482 766.5 L 482 768.5 L 479.5 772 L 472.5 774 L 469.5 773 L 467 774 L 467 745 Z " /><path fill="rgb(251,251,251)" stroke="rgb(251,251,251)" stroke-width="1" opacity="1" d="M 490.5 745 Q 492.8 744.3 492 746.5 L 496 752.5 Q 493.5 754 497 755.5 L 500 764 Q 497 765.3 498 761.5 L 496 757 L 492.5 755 L 491 773 L 489 772.5 L 489 746.5 L 490.5 745 Z " /><path fill="rgb(251,251,251)" stroke="rgb(251,251,251)" stroke-width="1" opacity="1" d="M 524 745 L 527 746.5 L 527 755.5 L 528.5 757 L 537 757 L 537 752.5 L 538 746 Q 542 744.6 540 751.5 L 540 753.5 L 539 757.5 L 540 758.5 L 540 773 L 538 772.5 L 538 760.5 L 536.5 760 Q 534.7 757.3 528.5 759 L 527 760.5 L 527 767.5 L 525.5 773 L 524 771.5 L 524 745 Z " /><path fill="rgb(251,251,251)" stroke="rgb(251,251,251)" stroke-width="1" opacity="1" d="M 552.5 745 Q 561.3 743.3 563 748.5 Q 565.9 753.1 565 761.5 Q 562.8 762.8 564 767.5 L 559.5 773 Q 551.5 774.5 549 770.5 Q 545.3 763.3 547 750.5 L 550.5 746 L 552.5 745 Z M 554 747 L 552 748 L 549 752 L 549 767 L 550 770 L 554 772 Q 560 773 562 770 L 563 765 Q 565 755 562 750 Q 560 746 554 747 Z " /><path fill="rgb(251,251,251)" stroke="rgb(251,251,251)" stroke-width="1" opacity="1" d="M 576.5 745 L 582 746.5 L 580.5 747 L 578.5 746 L 574.5 747 L 572 749.5 Q 571.3 754.3 574.5 755 L 585 762.5 L 586 767 Q 582.7 768.3 584 763.5 L 572 754.5 L 571 749.5 L 573.5 746 L 576.5 745 Z " /><path fill="rgb(251,251,251)" stroke="rgb(251,251,251)" stroke-width="1" opacity="1" d="M 595 745 L 604 745.5 L 596.5 748 L 595 745 Z " /><path fill="rgb(251,251,251)" stroke="rgb(251,251,251)" stroke-width="1" opacity="1" d="M 621.5 745 L 624 746 L 624 749.5 L 627 752.5 L 631 762.5 L 637 768.5 L 637 773 Q 633.3 774.5 634 771.5 L 624.5 752 L 622 752.5 L 622 772.5 L 620 773 L 620 751.5 L 621 750.5 L 620 746.5 L 621.5 745 Z " /><path fill="rgb(251,251,251)" stroke="rgb(251,251,251)" stroke-width="1" opacity="1" d="M 650.5 745 Q 657.4 744.1 659 748.5 L 658.5 750 Q 656.5 746 650.5 746 L 646 749.5 L 645 757.5 L 646 762.5 L 646 764.5 Q 645 771 649.5 772 Q 656.5 773.5 658 769.5 L 659 760.5 L 654 758.5 L 659.5 758 L 661 761.5 L 659 771 L 655.5 773 L 648.5 773 L 644 767.5 L 644 751.5 L 647.5 746 L 650.5 745 Z " /><path fill="rgb(251,251,251)" stroke="rgb(251,251,251)" stroke-width="1" opacity="1" d="M 504.5 746 Q 507.5 745.1 506 749.5 L 506 751.5 L 506 772.5 L 503.5 773 L 501 768.5 L 503 767.5 L 502 765 Q 505 766.3 504 762.5 L 503 759.5 L 504 750.5 L 503 747.5 L 504.5 746 Z " /><path fill="rgb(251,251,251)" stroke="rgb(251,251,251)" stroke-width="1" opacity="1" d="M 611 746 L 613 746.5 L 612 748.5 L 612 750.5 L 613 771.5 L 611 772.5 L 611 746 Z " /><path fill="rgb(251,251,251)" stroke="rgb(251,251,251)" stroke-width="1" opacity="1" d="M 635 746 Q 638.3 744.9 637 749 Q 633.7 750.1 635 746 Z " /><path fill="rgb(251,251,251)" stroke="rgb(251,251,251)" stroke-width="1" opacity="1" d="M 583.5 747 L 585 749.5 L 583 750 L 583.5 747 Z " /><path fill="rgb(251,251,251)" stroke="rgb(251,251,251)" stroke-width="1" opacity="1" d="M 596.5 749 L 598 750.5 L 598 758.5 L 597 763.5 L 598 764.5 L 598 773 L 596 772.5 L 596.5 749 Z " /><path fill="rgb(251,251,251)" stroke="rgb(251,251,251)" stroke-width="1" opacity="1" d="M 635 751 L 637 751.5 L 637 763.5 L 636 763.5 L 635 761.5 L 635 751 Z " /><path fill="rgb(251,251,251)" stroke="rgb(251,251,251)" stroke-width="1" opacity="1" d="M 571.5 767 L 573 771 L 580.5 772 L 584 769.5 L 584.5 768 L 585 769.5 L 584 772 Q 581.3 773.9 574.5 773 L 570 768.5 L 571.5 767 Z " /></svg>